<svg width="57" height="54" viewBox="0 0 57 54" fill="none" xmlns="http://www.w3.org/2000/svg">
<ellipse cx="28.0531" cy="26.9037" rx="28.0531" ry="26.9037" fill="#151515"/>
<path d="M26.9718 38.5488C26.9718 39.3773 27.6434 40.0488 28.4718 40.0488C29.3002 40.0488 29.9718 39.3773 29.9718 38.5488H28.4718H26.9718ZM29.5325 14.1984C28.9467 13.6126 27.9969 13.6126 27.4111 14.1984L17.8652 23.7443C17.2794 24.3301 17.2794 25.2798 17.8652 25.8656C18.451 26.4514 19.4007 26.4514 19.9865 25.8656L28.4718 17.3803L36.9571 25.8656C37.5429 26.4514 38.4926 26.4514 39.0784 25.8656C39.6642 25.2798 39.6642 24.3301 39.0784 23.7443L29.5325 14.1984ZM28.4718 38.5488H29.9718V15.259H28.4718H26.9718V38.5488H28.4718Z" fill="#F5F5F5"/>
</svg>
