<svg width="36" height="36" viewBox="0 0 36 36" fill="none" xmlns="http://www.w3.org/2000/svg">
<circle cx="18" cy="18" r="18" fill="#363636"/>
<path d="M14.6667 10.5C12.1667 10.5 10.5 12.3655 10.5 14.6667C10.5 15.6047 10.9167 16.75 11.75 18C12.4602 19.0654 12.9687 22.0476 13.5334 24.3671C13.6978 25.0426 14.3107 25.5 15.0059 25.5C15.7719 25.5 16.4256 24.9462 16.5516 24.1906L17.0297 21.322C17.1087 20.8477 17.5191 20.5 18 20.5C18.4809 20.5 18.8916 20.8477 18.9706 21.322L19.4487 24.1906C19.5747 24.9462 20.2284 25.5 20.9945 25.5C21.6896 25.5 22.3025 25.0426 22.467 24.3671C23.0316 22.0476 23.5401 19.0654 24.2503 18C25.0836 16.75 25.5003 15.6047 25.5003 14.6667C25.5003 12.3655 23.8336 10.5 21.3336 10.5C18.8336 10.5 18.8339 12.1667 18.0003 12.1667C17.1667 12.1667 17.1667 10.5 14.6667 10.5Z" stroke="#EFEFEF" stroke-width="1.5" stroke-linecap="round" stroke-linejoin="round"/>
</svg>
