<svg width="18" height="18" viewBox="0 0 18 18" fill="none" xmlns="http://www.w3.org/2000/svg">
<path d="M16.75 13.814C16.75 14.102 16.6859 14.398 16.5497 14.686C16.4135 14.974 16.2372 15.246 16.0049 15.502C15.6123 15.934 15.1796 16.246 14.6909 16.446C14.2102 16.646 13.6894 16.75 13.1286 16.75C12.3113 16.75 11.438 16.558 10.5167 16.166C9.59527 15.774 8.67389 15.246 7.76052 14.582C6.83913 13.91 5.96582 13.166 5.13257 12.342C4.30734 11.51 3.56222 10.638 2.89722 9.726C2.24024 8.814 1.71144 7.902 1.32687 6.998C0.942288 6.086 0.75 5.214 0.75 4.382C0.75 3.838 0.846144 3.318 1.03843 2.838C1.23072 2.35 1.53518 1.902 1.95981 1.502C2.47258 0.998 3.03343 0.75 3.62631 0.75C3.85065 0.75 4.07499 0.798 4.27529 0.894C4.4836 0.99 4.66788 1.134 4.81209 1.342L6.67088 3.958C6.8151 4.158 6.91925 4.342 6.99136 4.518C7.06347 4.686 7.10353 4.854 7.10353 5.006C7.10353 5.198 7.04745 5.39 6.93528 5.574C6.83112 5.758 6.67889 5.95 6.4866 6.142L5.87769 6.774C5.78956 6.862 5.7495 6.966 5.7495 7.094C5.7495 7.158 5.75751 7.214 5.77354 7.278C5.79757 7.342 5.82161 7.39 5.83763 7.438C5.98185 7.702 6.23022 8.046 6.58275 8.462C6.94329 8.878 7.32787 9.302 7.74449 9.726C8.17714 10.15 8.59377 10.542 9.0184 10.902C9.43503 11.254 9.77954 11.494 10.052 11.638C10.092 11.654 10.1401 11.678 10.1962 11.702C10.2603 11.726 10.3244 11.734 10.3965 11.734C10.5327 11.734 10.6368 11.686 10.725 11.598L11.3339 10.998C11.5342 10.798 11.7265 10.646 11.9107 10.55C12.095 10.438 12.2793 10.382 12.4796 10.382C12.6318 10.382 12.7921 10.414 12.9683 10.486C13.1446 10.558 13.3289 10.662 13.5292 10.798L16.1811 12.678C16.3895 12.822 16.5337 12.99 16.6218 13.19C16.7019 13.39 16.75 13.59 16.75 13.814Z" fill="#151515" stroke="white" stroke-width="1.5" stroke-miterlimit="10"/>
</svg>
