<svg width="28" height="28" viewBox="0 0 28 28" fill="none" xmlns="http://www.w3.org/2000/svg">
<path d="M13.5227 8.78483C10.9061 8.78483 8.78483 10.9061 8.78483 13.5227C8.78483 16.1394 10.9061 18.2607 13.5227 18.2607C16.1394 18.2607 18.2607 16.1394 18.2607 13.5227C18.2607 10.9061 16.1394 8.78483 13.5227 8.78483Z" fill="#BB0708"/>
<path fill-rule="evenodd" clip-rule="evenodd" d="M0.750977 13.1108C0.750977 7.96121 0.750977 5.38644 2.06237 3.58147C2.4859 2.99853 2.99853 2.4859 3.58147 2.06237C5.38644 0.750977 7.96121 0.750977 13.1108 0.750977H13.9347C19.0843 0.750977 21.659 0.750977 23.464 2.06237C24.047 2.4859 24.5596 2.99853 24.9831 3.58147C26.2945 5.38644 26.2945 7.96121 26.2945 13.1108V13.9347C26.2945 19.0843 26.2945 21.659 24.9831 23.464C24.5596 24.047 24.047 24.5596 23.464 24.9831C21.659 26.2945 19.0843 26.2945 13.9347 26.2945H13.1108C7.96121 26.2945 5.38644 26.2945 3.58147 24.9831C2.99853 24.5596 2.4859 24.047 2.06237 23.464C0.750977 21.659 0.750977 19.0843 0.750977 13.9347V13.1108ZM6.45021 13.5227C6.45021 9.61669 9.61669 6.45021 13.5227 6.45021C17.4288 6.45021 20.5953 9.61669 20.5953 13.5227C20.5953 17.4288 17.4288 20.5953 13.5227 20.5953C9.61669 20.5953 6.45021 17.4288 6.45021 13.5227ZM21.0244 4.45891C20.1427 4.45891 19.428 5.17367 19.428 6.05538C19.428 6.93709 20.1427 7.65185 21.0244 7.65185C21.9062 7.65185 22.6209 6.93709 22.6209 6.05538C22.6209 5.17367 21.9062 4.45891 21.0244 4.45891Z" fill="#BB0708"/>
</svg>
