<svg width="52" height="52" viewBox="0 0 52 52" fill="none" xmlns="http://www.w3.org/2000/svg">
<circle cx="26" cy="26" r="26" fill="#363636"/>
<path d="M21.1852 15.1667C17.5741 15.1667 15.1667 17.8613 15.1667 21.1853C15.1667 22.5402 15.7685 24.1945 16.9722 26.0001C17.9981 27.5389 18.7326 31.8466 19.5482 35.1971C19.7857 36.1727 20.671 36.8334 21.6751 36.8334C22.7816 36.8334 23.7259 36.0335 23.9078 34.942L24.5984 30.7985C24.7126 30.1134 25.3054 29.6112 26 29.6112C26.6946 29.6112 27.2879 30.1134 27.4021 30.7985L28.0926 34.942C28.2745 36.0335 29.2189 36.8334 30.3253 36.8334C31.3295 36.8334 32.2148 36.1727 32.4523 35.1971C33.2679 31.8466 34.0023 27.5389 35.0282 26.0001C36.2319 24.1945 36.8338 22.5402 36.8338 21.1853C36.8338 17.8613 34.4264 15.1667 30.8153 15.1667C27.2042 15.1667 27.2046 17.5742 26.0005 17.5742C24.7963 17.5742 24.7963 15.1667 21.1852 15.1667Z" stroke="#EFEFEF" stroke-width="1.5" stroke-linecap="round" stroke-linejoin="round"/>
</svg>
