<svg width="24" height="24" viewBox="0 0 24 24" fill="none" xmlns="http://www.w3.org/2000/svg">
<g clip-path="url(#clip0_1_329)">
<path fill-rule="evenodd" clip-rule="evenodd" d="M16.4401 12.929H2.46944C2.21163 12.929 2.01845 12.7162 2.01845 12.4468V1.48219C2.01845 1.21263 2.21181 1 2.46944 1H16.4401C16.685 1 16.891 1.21281 16.891 1.48219V12.4183C16.9039 12.702 16.6848 12.9289 16.4401 12.9289V12.929ZM2.62423 12.2482H16.2597V1.66664H2.62423V12.2482Z" fill="#E60A06" stroke="#E60A06" stroke-width="0.4"/>
<path fill-rule="evenodd" clip-rule="evenodd" d="M9.45471 9.05656C7.94682 9.05656 6.51629 8.37574 5.52383 7.15579C5.4336 7.02811 5.40782 6.85786 5.49805 6.71615L6.58071 4.98565C6.63227 4.90053 6.72251 4.84378 6.81274 4.82959C6.89008 4.82959 7.0061 4.87215 7.05766 4.94309C7.66336 5.69486 8.50107 6.09209 9.42903 6.09209C10.3312 6.09209 11.2076 5.68065 11.7875 4.94309C11.8649 4.87215 11.9551 4.82959 12.0453 4.82959C12.1356 4.82959 12.2258 4.88634 12.2774 4.97146L13.36 6.70196C13.4502 6.82965 13.4374 7.01409 13.3471 7.12758C12.3805 8.3759 10.9499 9.05672 9.45498 9.05672L9.45471 9.05656ZM6.16827 6.90043C7.01887 7.83661 8.21738 8.38975 9.45471 8.38975C10.679 8.38975 11.8648 7.85079 12.7412 6.90043L12.0066 5.73725C11.3106 6.41807 10.3956 6.80111 9.45471 6.80111C8.4881 6.80111 7.5988 6.41805 6.87709 5.73725L6.16827 6.90043Z" fill="#E60A06" stroke="#E60A06" stroke-width="0.4"/>
<path fill-rule="evenodd" clip-rule="evenodd" d="M4.53149 15.6662C4.36391 15.6662 4.20923 15.5102 4.20923 15.3116V12.5739C4.20923 12.3753 4.36391 12.2192 4.53149 12.2192C4.71196 12.2192 4.85375 12.3753 4.85375 12.5739V15.3116C4.84086 15.5102 4.69906 15.6662 4.53149 15.6662Z" fill="#E60A06" stroke="#E60A06" stroke-width="0.4"/>
<path fill-rule="evenodd" clip-rule="evenodd" d="M14.365 15.6662C14.1845 15.6662 14.0427 15.5102 14.0427 15.3116V12.5739C14.0427 12.3753 14.1845 12.2192 14.365 12.2192C14.5454 12.2192 14.6872 12.3753 14.6872 12.5739V15.3116C14.6872 15.5102 14.5454 15.6662 14.365 15.6662Z" fill="#E60A06" stroke="#E60A06" stroke-width="0.4"/>
<path fill-rule="evenodd" clip-rule="evenodd" d="M17.4709 21.1985H1.42522C1.1932 21.1985 1 20.9715 1 20.7163V15.4539C1 15.1985 1.19336 14.9717 1.42522 14.9717H17.4709C17.7029 14.9717 17.909 15.1987 17.909 15.4539V20.7449C17.909 20.9719 17.7027 21.1987 17.4709 21.1987V21.1985ZM1.61851 20.5035H17.2772V15.6665H1.61851V20.5035Z" fill="#E60A06" stroke="#E60A06" stroke-width="0.4"/>
<path d="M10.5892 17.3276C10.9671 17.3278 11.2913 17.649 11.2914 18.106C11.2914 18.5631 10.9673 18.8851 10.5892 18.8853C10.2258 18.8853 9.89977 18.5651 9.89977 18.106C9.89989 17.6469 10.2257 17.3276 10.5892 17.3276ZM10.5892 17.6079C10.3078 17.6079 10.1314 17.8712 10.1312 18.106C10.1312 18.3408 10.3077 18.604 10.5892 18.604C10.8776 18.6038 11.0599 18.3474 11.0599 18.106C11.0598 17.8713 10.8962 17.6081 10.5892 17.6079Z" fill="#E60A06" stroke="#E60A06" stroke-width="0.4"/>
<path d="M13.0764 17.3276C13.4543 17.3278 13.7784 17.649 13.7785 18.106C13.7785 18.5612 13.4434 18.885 13.0764 18.8853C12.7019 18.8853 12.3869 18.5671 12.3869 18.106C12.387 17.6449 12.7019 17.3276 13.0764 17.3276ZM13.0764 17.6079C12.9379 17.6079 12.8191 17.6765 12.7395 17.7642C12.6594 17.8523 12.6057 17.9736 12.6057 18.106C12.6057 18.2382 12.6595 18.3596 12.7395 18.4478C12.8191 18.5354 12.9379 18.604 13.0764 18.604C13.2147 18.6039 13.3328 18.5353 13.4123 18.4478C13.4924 18.3596 13.5471 18.2383 13.5471 18.106C13.547 17.9736 13.4924 17.8523 13.4123 17.7642C13.3328 17.6767 13.2146 17.608 13.0764 17.6079Z" fill="#E60A06" stroke="#E60A06" stroke-width="0.4"/>
<path d="M15.5508 17.3276C15.9141 17.3277 16.2401 17.647 16.2403 18.106C16.2403 18.5632 15.9032 18.8852 15.5508 18.8853C15.1727 18.8853 14.8487 18.5632 14.8487 18.106C14.8488 17.6488 15.1726 17.3276 15.5508 17.3276ZM15.5508 17.6079C15.2624 17.6079 15.0802 17.8645 15.0801 18.106C15.0801 18.3475 15.2623 18.604 15.5508 18.604C15.8322 18.6039 16.0088 18.3407 16.0088 18.106C16.0087 17.8713 15.8321 17.608 15.5508 17.6079Z" fill="#E60A06" stroke="#E60A06" stroke-width="0.4"/>
<path fill-rule="evenodd" clip-rule="evenodd" d="M8.32056 18.4608H2.79156C2.61109 18.4608 2.4693 18.3048 2.4693 18.1061C2.4693 17.9075 2.6111 17.7515 2.79156 17.7515H8.32056C8.50103 17.7515 8.64282 17.9075 8.64282 18.1061C8.64282 18.3048 8.50103 18.4608 8.32056 18.4608Z" fill="#E60A06" stroke="#E60A06" stroke-width="0.4"/>
<path fill-rule="evenodd" clip-rule="evenodd" d="M18.4891 22.9997H11.6327C10.2537 22.9997 9.14529 22.0352 9.14529 20.8436C9.14529 20.645 9.28709 20.4889 9.46755 20.4889C9.64802 20.4889 9.78981 20.645 9.78981 20.8436C9.78981 21.6237 10.6533 22.3187 11.6457 22.3187H18.5151C19.5076 22.3187 20.3711 21.6379 20.3711 20.8436V12.1628C20.3711 11.9642 20.5128 11.8081 20.6933 11.8081C20.8738 11.8081 21.0156 11.9642 21.0156 12.1628V20.8579C20.9769 22.0352 19.8556 22.9998 18.4895 22.9998L18.4891 22.9997Z" fill="#E60A06" stroke="#E60A06" stroke-width="0.4"/>
<path fill-rule="evenodd" clip-rule="evenodd" d="M20.6542 12.5032C19.8036 12.5032 19.1076 11.7373 19.1076 10.7869L19.0947 8.78681C19.0947 8.58819 19.2494 8.43213 19.417 8.43213C19.5975 8.43213 19.7393 8.58819 19.7393 8.78681V10.7869C19.7393 11.34 20.1774 11.8082 20.6801 11.8082C21.1698 11.8082 21.6081 11.3402 21.6081 10.7869V8.78681C21.6081 8.58819 21.7499 8.43213 21.9303 8.43213C22.0979 8.43213 22.2526 8.58819 22.2526 8.78681V10.7869C22.2268 11.7373 21.518 12.5032 20.6545 12.5032H20.6542Z" fill="#E60A06" stroke="#E60A06" stroke-width="0.4"/>
<path fill-rule="evenodd" clip-rule="evenodd" d="M22.6777 9.11317H18.6565C18.476 9.11317 18.3342 8.95711 18.3342 8.75849C18.3342 8.55987 18.476 8.40381 18.6565 8.40381H22.6777C22.8582 8.40381 23 8.55987 23 8.75849C23 8.95711 22.8324 9.11317 22.6777 9.11317Z" fill="#E60A06" stroke="#E60A06" stroke-width="0.4"/>
</g>
<defs>
<clipPath id="clip0_1_329">
<rect width="24" height="24" fill="white"/>
</clipPath>
</defs>
</svg>
