<svg width="24" height="24" viewBox="0 0 24 24" fill="none" xmlns="http://www.w3.org/2000/svg">
<path d="M13.9189 2.79883C16.0272 2.46584 17.1695 3.90912 17.6436 4.73828C18.207 4.4089 19.1846 4.03574 20.2363 4.54004C20.9503 4.88216 21.3189 5.44065 21.4697 6.03613C21.5918 6.51824 21.5689 7.02084 21.4863 7.45605C22.0811 7.58424 22.7674 7.99424 23.124 8.96191C23.4248 9.77878 23.1764 10.6703 22.5068 11.2871C22.2082 11.5655 21.8473 11.7663 21.4551 11.8721C21.157 11.9524 20.8479 11.9749 20.543 11.9414C20.5132 12.2268 20.4362 12.5631 20.2578 12.8955C20.0284 13.323 19.6391 13.7279 19.0088 14.0117C18.9884 14.2166 18.9489 14.4193 18.8887 14.6162C18.6218 15.4943 18.0217 15.9975 17.3613 16.2588C16.792 16.484 16.1763 16.5314 15.6748 16.498C15.4899 17.0611 15.0126 17.9237 13.8027 18.2393L13.5156 18.3008C12.2926 18.5092 11.3999 17.9884 10.8682 17.5186C10.4559 18.2686 9.56712 19.25 7.77637 19.25C7.74293 19.25 7.70977 19.2489 7.68066 19.248C7.6503 19.2472 7.62374 19.2471 7.59766 19.2471H7.58789V19.2461C6.5577 19.2074 5.84439 18.8547 5.35938 18.4189C4.97029 18.0692 4.73897 17.6728 4.60254 17.3652C3.94228 17.4796 2.93421 17.4241 2.11426 16.9492C1.46417 16.5727 0.712266 15.7961 0.750977 14.2852C0.777312 13.2893 1.10579 12.5083 1.77051 12.0205H1.77148C2.24914 11.6703 2.81324 11.5394 3.32129 11.5088C3.69046 11.4865 4.03942 11.5174 4.32129 11.5596C4.3811 10.6794 4.76128 9.17765 6.57324 8.56934C6.81401 8.48736 7.06099 8.42592 7.31152 8.38574C7.25378 7.77495 7.33032 6.80696 8.1416 5.96484C9.03288 5.04062 10.2183 5.16274 10.9023 5.34277C11.0075 4.9747 11.2046 4.49887 11.5732 4.05273C12.0427 3.48468 12.7793 2.97892 13.9189 2.79883ZM9.40625 9.8252C8.86417 9.44745 8.04422 9.1641 6.89551 9.5498H6.89453C5.97342 9.85911 5.59168 10.4748 5.43262 11.0264C5.271 11.5869 5.34138 12.0829 5.34668 12.1182L5.35254 12.1826C5.35444 12.2469 5.34389 12.3111 5.32227 12.3721C5.2933 12.4536 5.24449 12.5271 5.17969 12.585C5.11489 12.6427 5.03622 12.6832 4.95117 12.7021C4.86752 12.7207 4.78038 12.7175 4.69824 12.6934C4.68207 12.6886 4.30533 12.5764 3.82324 12.5439C3.32442 12.5104 2.76674 12.5668 2.37109 12.8574C2.01215 13.1211 1.79275 13.588 1.77441 14.3115V14.3125C1.75039 15.1557 2.04854 15.7207 2.62305 16.0537C3.01761 16.2822 3.4902 16.3707 3.89844 16.3818C4.10085 16.3873 4.28171 16.3736 4.4209 16.3516C4.49059 16.3405 4.54764 16.3278 4.58984 16.3154C4.62821 16.3042 4.64528 16.2954 4.64844 16.2939C4.71955 16.2481 4.80115 16.2212 4.88574 16.2148C4.9704 16.2085 5.05558 16.2229 5.13281 16.2578C5.21008 16.2928 5.27781 16.347 5.3291 16.4141C5.37985 16.4806 5.41354 16.5585 5.42773 16.6406L5.44434 16.7129C5.47952 16.8428 5.57744 17.1273 5.80762 17.4131C6.10665 17.7843 6.64514 18.1773 7.62598 18.2139C8.75018 18.256 9.37901 17.8248 9.73438 17.3945C10.0993 16.9525 10.1923 16.4893 10.1963 16.4678V16.4668C10.2155 16.3668 10.2643 16.2741 10.3359 16.2012C10.4075 16.1284 10.499 16.0777 10.5996 16.0576C10.7004 16.0375 10.805 16.0493 10.8994 16.0898C10.9936 16.1303 11.0737 16.1974 11.1289 16.2832V16.2842C11.1382 16.2987 11.3439 16.6152 11.7256 16.8936C12.1034 17.169 12.6447 17.4019 13.3438 17.2822L13.5869 17.2275C14.1185 17.0764 14.4056 16.7729 14.5654 16.5C14.7559 16.1748 14.7705 15.8823 14.7705 15.9131V15.9053L14.7715 15.8984C14.7757 15.8257 14.7947 15.7543 14.8281 15.6895C14.8615 15.6247 14.9086 15.5679 14.9658 15.5225C15.0232 15.477 15.0898 15.4442 15.1611 15.4268C15.2325 15.4093 15.3068 15.4068 15.3789 15.4209L15.3809 15.4219C15.4155 15.4289 15.9549 15.5291 16.5381 15.4277C17.1156 15.3273 17.6897 15.0415 17.9111 14.3125L17.9707 14.0703C18.0755 13.5179 17.9395 13.0436 17.6035 12.6943L17.6025 12.6934C17.1601 12.2326 16.4318 12.0489 15.749 12.251L15.7461 12.252C15.6772 12.2714 15.6051 12.2768 15.5342 12.2666C15.4632 12.2563 15.3946 12.2314 15.334 12.1934L15.332 12.1914C15.2715 12.1524 15.2191 12.1009 15.1797 12.041C15.1404 11.9813 15.1138 11.914 15.1016 11.8438V11.8418C15.1015 11.8416 15.101 11.8404 15.1006 11.8379C15.1001 11.8352 15.0996 11.8311 15.0986 11.8262C15.0966 11.8164 15.0932 11.8027 15.0889 11.7852C15.0801 11.7495 15.0666 11.6985 15.0459 11.6367C15.0042 11.5126 14.9348 11.344 14.8242 11.1611C14.6044 10.7975 14.22 10.3722 13.5508 10.1104H13.5498C12.8148 9.82279 12.2129 9.98979 11.7842 10.2334C11.3549 10.4774 11.1074 10.7956 11.1055 10.7979H11.1045C11.053 10.8663 10.9856 10.9217 10.9072 10.957C10.8288 10.9924 10.7421 11.0074 10.6562 11V10.999C10.5718 10.992 10.4907 10.9642 10.4199 10.918C10.3486 10.8713 10.2896 10.808 10.249 10.7334L10.2471 10.7305V10.7295L10.2432 10.7217C10.2405 10.7169 10.2362 10.7103 10.2314 10.7021C10.2217 10.6856 10.2076 10.6628 10.1895 10.6348C10.153 10.5784 10.1005 10.5011 10.0303 10.4131C9.88927 10.2363 9.68159 10.0171 9.40625 9.8252ZM16.2871 4.58496C15.8288 4.09094 15.1245 3.6582 14.0781 3.82227C12.9637 3.99713 12.4068 4.54382 12.1201 5.04004C11.9 5.42119 11.8335 5.78445 11.8135 5.95215L11.8047 6.04785C11.8015 6.13213 11.7785 6.21479 11.7363 6.28809C11.6941 6.36146 11.6337 6.42382 11.5615 6.46875C11.4895 6.51351 11.4072 6.53906 11.3223 6.54395C11.2371 6.54883 11.1521 6.5326 11.0752 6.49609L11.0723 6.49512C11.0652 6.49202 10.7106 6.32872 10.2549 6.27539C9.78936 6.22097 9.26606 6.28492 8.87695 6.68848C8.31477 7.27155 8.29003 7.95804 8.33984 8.36133C9.53525 8.49431 10.3371 9.20218 10.7637 9.7041C11.3462 9.22106 12.4693 8.58317 13.9209 9.15137C15.1855 9.64611 15.7342 10.5837 15.9609 11.1641C16.8427 11.0609 17.7359 11.3522 18.3379 11.9775L18.458 12.1113C18.6518 12.3441 18.7998 12.6118 18.8955 12.8994C19.2733 12.6401 19.4349 12.3159 19.501 12.0332C19.5418 11.8582 19.5477 11.697 19.542 11.5762C19.5392 11.516 19.5333 11.4664 19.5283 11.4316C19.5259 11.4145 19.5232 11.4011 19.5215 11.3916C19.5206 11.3868 19.5201 11.3825 19.5195 11.3799C19.5193 11.3787 19.5187 11.3776 19.5186 11.377L19.5078 11.3057C19.5016 11.2336 19.5106 11.1607 19.5342 11.0918C19.5656 11.0002 19.6216 10.9186 19.6973 10.8574C19.773 10.7963 19.8648 10.7577 19.9619 10.7471C20.0592 10.7365 20.1579 10.755 20.2451 10.7988C20.8048 11.0801 21.4371 10.8776 21.8184 10.5254L21.8271 10.5176C22.2027 10.1665 22.3119 9.72277 22.165 9.3252C21.9707 8.79795 21.658 8.59175 21.4043 8.50684C21.1379 8.4177 20.9118 8.45503 20.9053 8.45605L20.9043 8.45508C20.8159 8.46958 20.7253 8.46156 20.6416 8.42969C20.5561 8.39713 20.4808 8.34254 20.4238 8.27148C20.3669 8.20041 20.3302 8.11508 20.3164 8.02539C20.3026 7.93574 20.3122 7.84358 20.3447 7.75879H20.3457C20.3799 7.6705 20.5421 7.22111 20.5371 6.72656C20.5321 6.24111 20.37 5.75173 19.7979 5.47754C19.3099 5.24331 18.8306 5.32574 18.4482 5.4873C18.0642 5.6497 17.8051 5.88164 17.792 5.89355C17.7297 5.95005 17.6542 5.99036 17.5723 6.01074C17.4902 6.0311 17.4041 6.03097 17.3223 6.00977C17.2405 5.98854 17.1653 5.94685 17.1035 5.88965C17.0418 5.83248 16.9956 5.76067 16.9678 5.68164L16.9668 5.67969C16.9556 5.64686 16.753 5.0873 16.2871 4.58496Z" fill="#BB0708" stroke="#BB0708" stroke-width="0.5"/>
</svg>
